<svg width="28" height="28" viewBox="0 0 28 28" fill="none" xmlns="http://www.w3.org/2000/svg">
<path d="M13.9999 0C6.38066 0 1.07682 5.47077 1.07682 12.3846C1.07682 15.6477 1.46343 18.5748 3.76912 20.7642C3.48821 21.4965 3.09032 22.1785 2.59097 22.7834C1.92853 23.587 1.19662 24.3308 0.40374 25.0062C0.229834 25.1457 0.103519 25.3357 0.0422262 25.5501C-0.0190665 25.7645 -0.0123149 25.9926 0.0615492 26.2029C0.135413 26.4133 0.272748 26.5956 0.454602 26.7245C0.636455 26.8535 0.853861 26.9229 1.07682 26.9231C3.4622 26.9231 5.17774 26.8962 6.73066 26.4858C8.11989 26.1175 9.3142 25.3465 10.5333 24.2642C11.6425 24.5302 12.7873 24.7692 13.9999 24.7692C21.6191 24.7692 26.923 19.2985 26.923 12.3846C26.923 5.47077 21.6191 0 13.9999 0ZM13.9999 2.15385C20.596 2.15385 24.7691 6.80615 24.7691 12.3846C24.7691 17.9631 20.596 22.6154 13.9999 22.6154C12.8271 22.6154 11.6091 22.4129 10.4999 22.1103C10.3225 22.0657 10.1367 22.067 9.95996 22.1141C9.78322 22.1612 9.6214 22.2526 9.48974 22.3795C8.2782 23.5415 7.38543 24.0832 6.1922 24.3988C5.64297 24.5442 4.58328 24.5097 3.83589 24.5678C3.98666 24.3977 4.12774 24.3072 4.2742 24.1295C5.12066 23.0957 5.89282 22.0026 6.12543 20.7642C6.15747 20.5782 6.14012 20.3872 6.0751 20.2101C6.01009 20.033 5.89969 19.8761 5.75497 19.7551C3.49882 17.892 3.23066 15.2805 3.23066 12.3846C3.23066 6.80615 7.40374 2.15385 13.9999 2.15385Z" fill="#8F8F8F"/>
<path d="M10.2307 9.30811C10.2287 9.35593 10.2365 9.40366 10.2536 9.44837C10.2707 9.49307 10.2967 9.5338 10.3302 9.56806C10.3636 9.60232 10.4037 9.62938 10.4479 9.64757C10.4922 9.66577 10.5397 9.67472 10.5876 9.67386H11.8092C12.0136 9.67386 12.1764 9.50654 12.2031 9.30367C12.3364 8.33229 13.0027 7.62448 14.1903 7.62448C15.2061 7.62448 16.136 8.13238 16.136 9.35402C16.136 10.2943 15.5822 10.7267 14.7071 11.3842C13.7105 12.1082 12.9213 12.9538 12.9775 14.3264L12.982 14.6478C12.9835 14.7449 13.0232 14.8376 13.0925 14.9057C13.1617 14.9739 13.255 15.012 13.3522 15.012H14.5531C14.6513 15.012 14.7454 14.973 14.8148 14.9036C14.8843 14.8342 14.9233 14.74 14.9233 14.6418V14.4864C14.9233 13.4232 15.3275 13.1137 16.4188 12.2859C17.3206 11.6003 18.2609 10.8392 18.2609 9.24148C18.2609 7.00404 16.3715 5.92308 14.3028 5.92308C12.4267 5.92308 10.3714 6.79673 10.2307 9.30811ZM12.5363 17.8418C12.5363 18.631 13.1656 19.2145 14.0318 19.2145C14.9336 19.2145 15.5541 18.631 15.5541 17.8418C15.5541 17.0244 14.9322 16.4499 14.0304 16.4499C13.1656 16.4499 12.5363 17.0244 12.5363 17.8418Z" fill="#8F8F8F"/>
</svg>
