<svg width="28" height="28" viewBox="0 0 28 28" fill="none" xmlns="http://www.w3.org/2000/svg">
<path d="M16.5455 11.375V9.25C17.2455 8.95833 17.9616 8.73958 18.6938 8.59375C19.4252 8.44792 20.1939 8.375 21 8.375C21.5515 8.375 22.0924 8.41667 22.6227 8.5C23.153 8.58333 23.6727 8.6875 24.1818 8.8125V10.8125C23.6727 10.625 23.1585 10.4846 22.6393 10.3912C22.1192 10.2971 21.5727 10.25 21 10.25C20.1939 10.25 19.4197 10.3492 18.6773 10.5475C17.9348 10.745 17.2242 11.0208 16.5455 11.375ZM16.5455 18.25V16.125C17.2455 15.8333 17.9616 15.6146 18.6938 15.4688C19.4252 15.3229 20.1939 15.25 21 15.25C21.5515 15.25 22.0924 15.2917 22.6227 15.375C23.153 15.4583 23.6727 15.5625 24.1818 15.6875V17.6875C23.6727 17.5 23.1585 17.3596 22.6393 17.2662C22.1192 17.1721 21.5727 17.125 21 17.125C20.1939 17.125 19.4197 17.2188 18.6773 17.4063C17.9348 17.5938 17.2242 17.875 16.5455 18.25ZM16.5455 14.8125V12.6875C17.2455 12.3958 17.9616 12.1771 18.6938 12.0313C19.4252 11.8854 20.1939 11.8125 21 11.8125C21.5515 11.8125 22.0924 11.8542 22.6227 11.9375C23.153 12.0208 23.6727 12.125 24.1818 12.25V14.25C23.6727 14.0625 23.1585 13.9221 22.6393 13.8287C22.1192 13.7346 21.5727 13.6875 21 13.6875C20.1939 13.6875 19.4197 13.7867 18.6773 13.985C17.9348 14.1825 17.2242 14.4583 16.5455 14.8125ZM7 19C7.99697 19 8.96764 19.1092 9.912 19.3275C10.8555 19.5467 11.7939 19.875 12.7273 20.3125V8C11.8576 7.5 10.9348 7.125 9.95909 6.875C8.98333 6.625 7.99697 6.5 7 6.5C6.23636 6.5 5.47824 6.57292 4.72564 6.71875C3.97218 6.86458 3.24545 7.08333 2.54545 7.375V19.75C3.28788 19.5 4.02521 19.3125 4.75745 19.1875C5.48885 19.0625 6.23636 19 7 19ZM15.2727 20.3125C16.2061 19.875 17.1449 19.5467 18.0893 19.3275C19.0328 19.1092 20.003 19 21 19C21.7636 19 22.5116 19.0625 23.2438 19.1875C23.9752 19.3125 24.7121 19.5 25.4545 19.75V7.375C24.7545 7.08333 24.0282 6.86458 23.2756 6.71875C22.5222 6.57292 21.7636 6.5 21 6.5C20.003 6.5 19.0167 6.625 18.0409 6.875C17.0652 7.125 16.1424 7.5 15.2727 8V20.3125ZM14 24C12.9818 23.2083 11.8788 22.5937 10.6909 22.1562C9.50303 21.7187 8.27273 21.5 7 21.5C6.10909 21.5 5.2343 21.6146 4.37564 21.8437C3.51612 22.0729 2.69394 22.3958 1.90909 22.8125C1.46364 23.0417 1.0343 23.0312 0.621091 22.7812C0.20703 22.5312 0 22.1667 0 21.6875V6.625C0 6.39583 0.0585455 6.17708 0.175636 5.96875C0.291879 5.76042 0.466667 5.60417 0.7 5.5C1.67576 5 2.69394 4.625 3.75455 4.375C4.81515 4.125 5.89697 4 7 4C8.2303 4 9.4343 4.15625 10.612 4.46875C11.7888 4.78125 12.9182 5.25 14 5.875C15.0818 5.25 16.2116 4.78125 17.3893 4.46875C18.5661 4.15625 19.7697 4 21 4C22.103 4 23.1848 4.125 24.2455 4.375C25.3061 4.625 26.3242 5 27.3 5.5C27.5333 5.60417 27.7085 5.76042 27.8256 5.96875C27.9419 6.17708 28 6.39583 28 6.625V21.6875C28 22.1667 27.7934 22.5312 27.3802 22.7812C26.9661 23.0312 26.5364 23.0417 26.0909 22.8125C25.3061 22.3958 24.4839 22.0729 23.6244 21.8437C22.7657 21.6146 21.8909 21.5 21 21.5C19.7273 21.5 18.497 21.7187 17.3091 22.1562C16.1212 22.5937 15.0182 23.2083 14 24Z" fill="#8F8F8F"/>
</svg>
