<svg width="32" height="32" viewBox="0 0 32 32" fill="none" xmlns="http://www.w3.org/2000/svg">
<path d="M12 12H20V20H12V12Z" fill="#8F8F8F"/>
<path d="M26.6667 8.00002C26.6667 6.52935 25.4707 5.33335 24.0001 5.33335H21.3334V2.66669H18.6667V5.33335H13.3334V2.66669H10.6667V5.33335H8.00008C6.52941 5.33335 5.33341 6.52935 5.33341 8.00002V10.6667H2.66675V13.3334H5.33341V18.6667H2.66675V21.3334H5.33341V24C5.33341 25.4707 6.52941 26.6667 8.00008 26.6667H10.6667V29.3334H13.3334V26.6667H18.6667V29.3334H21.3334V26.6667H24.0001C25.4707 26.6667 26.6667 25.4707 26.6667 24V21.3334H29.3334V18.6667H26.6667V13.3334H29.3334V10.6667H26.6667V8.00002ZM8.00008 24V8.00002H24.0001L24.0027 24H8.00008Z" fill="#8F8F8F"/>
</svg>
