<svg width="32" height="32" viewBox="0 0 32 32" fill="none" xmlns="http://www.w3.org/2000/svg">
<path d="M29.3027 18.3773L26.6361 6.37731C26.5698 6.08124 26.4046 5.81655 26.1679 5.6268C25.9311 5.43705 25.6368 5.33355 25.3334 5.33331H21.3334V7.99998H24.2641L25.5454 13.768C24.8425 13.4836 24.0917 13.3361 23.3334 13.3333C20.7294 13.3333 18.5294 15.0106 17.7014 17.3333H14.2974C13.4694 15.0106 11.2694 13.3333 8.66541 13.3333C7.88275 13.3333 7.13875 13.4946 6.45342 13.768L7.73608 7.99998H10.6667V5.33331H6.66675C6.36344 5.33337 6.06921 5.43683 5.83262 5.62663C5.59604 5.81643 5.43123 6.08123 5.36542 6.37731L2.69875 18.3773L2.76141 18.392C2.70541 18.7028 2.67376 19.0176 2.66675 19.3333C2.66675 22.6413 5.35875 25.3333 8.66675 25.3333C11.7467 25.3333 14.2627 22.992 14.5987 20H17.4014C17.7374 22.992 20.2534 25.3333 23.3334 25.3333C26.6414 25.3333 29.3334 22.6413 29.3334 19.3333C29.3334 19.0106 29.2881 18.7 29.2387 18.392L29.3027 18.3773V18.3773ZM8.66675 22.6666C6.82941 22.6666 5.33341 21.1706 5.33341 19.3333C5.33341 17.496 6.82941 16 8.66675 16C10.5041 16 12.0001 17.496 12.0001 19.3333C12.0001 21.1706 10.5041 22.6666 8.66675 22.6666ZM23.3334 22.6666C21.4947 22.6666 20.0001 21.1706 20.0001 19.3333C20.0001 17.496 21.4947 16 23.3334 16C25.1721 16 26.6667 17.496 26.6667 19.3333C26.6667 21.1706 25.1721 22.6666 23.3334 22.6666Z" fill="#8F8F8F"/>
</svg>
