<svg width="28" height="28" viewBox="0 0 28 28" fill="none" xmlns="http://www.w3.org/2000/svg">
<path d="M21.2997 18.676C21.1999 18.648 18.8309 17.9791 16.9776 17.9791C16.3485 17.9791 15.8532 18.0539 15.4652 18.2083C14.8837 18.4397 14.4366 18.7552 14.091 19.1069C14.161 18.4205 14.2144 17.7327 14.2393 17.0446C14.3286 16.7383 14.3741 16.359 14.2551 15.9574C14.2565 15.4514 14.2453 14.9455 14.2214 14.4401C14.5723 14.5456 15.3707 14.7512 16.2903 14.7512C17.3176 14.7512 18.1838 14.4992 18.8659 14.0018C20.2068 13.0239 20.132 10.4291 20.1189 10.136L20.0996 9.70638L19.6293 9.72781C19.2058 9.7475 15.449 9.94569 14.1737 10.8754C14.0647 10.955 13.9681 11.0372 13.8766 11.1217C13.8455 10.9209 13.8128 10.7204 13.7786 10.5201C13.9348 10.2987 14.0752 10.0135 14.0976 9.66831C14.1299 9.18138 13.9125 8.71281 13.4724 8.27356C13.7165 8.351 14.3552 8.52731 15.0999 8.52731C15.8961 8.52731 16.569 8.32912 17.1006 7.93756C18.1475 7.16581 18.0889 5.15725 18.0784 4.93063L18.0596 4.50056L17.5897 4.522C17.2681 4.53688 14.4209 4.68737 13.4369 5.411C13.1088 5.65294 12.8887 5.92769 12.7606 6.22694C12.6594 5.90942 12.5536 5.59337 12.4434 5.27887C12.5536 5.2465 13.1845 5.03738 13.4872 4.47869C13.6211 4.23194 13.7349 3.82288 13.5183 3.27469C13.1828 2.4255 11.4678 1.32825 11.1274 1.11694L10.7389 0.875L10.4781 1.23331C10.3692 1.38338 9.42419 2.72606 9.79431 3.66406C10.2966 4.93544 11.9884 5.25875 12.1909 5.29331C12.4193 6.10925 12.6241 6.92956 12.7868 7.756L12.7908 7.77919C11.4975 7.08356 9.21069 6.59881 8.91144 6.53756L8.42362 6.43737L8.34881 6.88931C8.31075 7.12075 8.00538 9.17875 9.06106 10.1443C9.97938 10.9852 11.2604 11.1615 12.1734 11.1615C12.7098 11.1615 13.0865 11.0989 13.1022 11.0968L13.2156 11.0775L13.2501 11.0526C13.2759 11.3282 13.2961 11.6034 13.3158 11.8786C13.2339 12.0632 13.1806 12.2548 13.1617 12.4548C13.1224 12.88 13.2396 13.2624 13.3875 13.5682C13.3906 13.7659 13.4028 13.9637 13.4019 14.1614C13.4015 14.3859 13.391 14.6099 13.3827 14.8343C13.1808 14.6972 12.9662 14.5798 12.7418 14.4839C12.1223 14.217 11.1055 14.0871 9.63375 14.0871C8.11388 14.0871 6.68981 14.2297 6.62988 14.2358L6.125 14.287L6.22387 14.7429C6.24794 14.8558 6.84206 17.5184 8.547 18.2525C9.13412 18.5063 9.79431 18.6344 10.5092 18.6344C11.5596 18.6344 12.5164 18.3593 13.1171 18.1379C12.7243 21.0521 11.9175 23.9076 10.6833 26.593L12.1927 27.125C12.7839 25.584 13.2501 23.9979 13.587 22.3821C14.0984 22.7863 15.0465 23.3695 16.2693 23.3695C16.7724 23.3677 17.2705 23.2702 17.7371 23.0821C19.4403 22.4048 21.4721 19.4342 21.5574 19.3082L21.875 18.8401L21.2997 18.676Z" fill="#8F8F8F"/>
</svg>
