<svg width="28" height="28" viewBox="0 0 28 28" fill="none" xmlns="http://www.w3.org/2000/svg">
<path d="M5.99992 23.3334H9.99992V15.3334H17.9999V23.3334H21.9999V11.3334L13.9999 5.33335L5.99992 11.3334V23.3334ZM5.99992 26C5.26659 26 4.63903 25.7391 4.11725 25.2174C3.59459 24.6947 3.33325 24.0667 3.33325 23.3334V11.3334C3.33325 10.9111 3.42792 10.5111 3.61725 10.1334C3.8057 9.75558 4.06659 9.44446 4.39992 9.20002L12.3999 3.20002C12.6444 3.02224 12.8999 2.88891 13.1666 2.80002C13.4333 2.71113 13.711 2.66669 13.9999 2.66669C14.2888 2.66669 14.5666 2.71113 14.8333 2.80002C15.0999 2.88891 15.3555 3.02224 15.5999 3.20002L23.5999 9.20002C23.9333 9.44446 24.1946 9.75558 24.3839 10.1334C24.5724 10.5111 24.6666 10.9111 24.6666 11.3334V23.3334C24.6666 24.0667 24.4057 24.6947 23.8839 25.2174C23.3613 25.7391 22.7333 26 21.9999 26H15.3333V18H12.6666V26H5.99992Z" fill="#8F8F8F"/>
</svg>
