<svg width="28" height="28" viewBox="0 0 28 28" fill="none" xmlns="http://www.w3.org/2000/svg">
<path d="M19.5999 2.6665C18.2665 1.33317 16.5332 0.666504 14.9332 0.666504C13.3332 0.666504 11.4665 1.33317 10.2665 2.6665L2.5332 10.1332C-0.133464 12.7998 -0.133464 16.9332 2.5332 19.5998C5.19987 22.2665 9.3332 22.2665 11.9999 19.5998L19.5999 11.9998C22.1332 9.4665 22.1332 5.19984 19.5999 2.6665ZM17.7332 10.1332L13.9999 13.8665L9.19987 9.19984L3.3332 15.0665C3.3332 13.9998 3.59987 12.7998 4.5332 11.9998L12.1332 4.39984C12.7999 3.73317 13.8665 3.33317 14.7999 3.33317C15.7332 3.33317 16.7999 3.73317 17.5999 4.39984C19.1999 6.13317 19.1999 8.53317 17.7332 10.1332M24.1332 7.4665C24.1332 8.53317 23.8665 9.4665 23.5999 10.5332C24.9332 12.1332 24.9332 14.5332 23.4665 15.9998L19.7332 19.7332L17.7332 17.7332L13.9999 21.4665C12.2665 23.1998 9.86654 24.1332 7.59987 24.1332C7.86654 24.5332 8.1332 24.9332 8.5332 25.3332C11.1999 27.9998 15.3332 27.9998 17.9999 25.3332L25.5999 17.7332C28.2665 15.0665 28.2665 10.9332 25.5999 8.2665C24.9332 7.99984 24.5332 7.73317 24.1332 7.4665V7.4665Z" fill="#8F8F8F"/>
</svg>
