<svg width="28" height="28" viewBox="0 0 28 28" fill="none" xmlns="http://www.w3.org/2000/svg">
<path d="M9.33325 7.00004C9.33325 4.42171 11.4216 2.33337 13.9999 2.33337C16.5782 2.33337 18.6666 4.42171 18.6666 7.00004C18.6666 9.57837 16.5782 11.6667 13.9999 11.6667C11.4216 11.6667 9.33325 9.57837 9.33325 7.00004ZM19.8332 25.6667H20.9999C22.2832 25.6667 23.3332 24.6167 23.3332 23.3334V17.7567C23.3332 16.45 22.6216 15.2484 21.4549 14.6534C20.9532 14.3967 20.4166 14.1517 19.8332 13.93V25.6667ZM14.3966 19.8334L17.4999 13.2184C16.4149 12.9734 15.2482 12.8334 13.9999 12.8334C11.0482 12.8334 8.50491 13.65 6.54491 14.6534C5.97565 14.9466 5.49876 15.3918 5.1672 15.9396C4.83563 16.4874 4.66234 17.1164 4.66658 17.7567V25.6667H7.39658C7.13991 25.1417 6.99991 24.5467 6.99991 23.9167C6.99991 21.665 8.83158 19.8334 11.0832 19.8334H14.3966ZM11.6666 25.6667L13.3116 22.1667H11.0832C10.1149 22.1667 9.33325 22.9484 9.33325 23.9167C9.33325 24.885 10.1149 25.6667 11.0832 25.6667H11.6666Z" fill="#8F8F8F"/>
</svg>
