<svg width="28" height="28" viewBox="0 0 28 28" fill="none" xmlns="http://www.w3.org/2000/svg">
<path d="M27.9613 6.21434C27.6163 3.71145 26.0015 1.58115 23.6857 0.584563C21.3591 -0.41802 18.6492 -0.116588 16.6128 1.37829C15.9941 1.83286 1.83137 16.0007 1.37695 16.6196C-0.336731 18.9582 -0.462401 22.1839 1.06478 24.6154C2.10498 26.2748 3.69243 27.4083 5.59776 27.8574C6.12329 27.978 6.33122 27.9997 7.13608 27.9997C8.15429 28.0051 8.6087 27.934 9.47383 27.6491C10.0816 27.4466 10.6234 27.1726 11.2421 26.7566C11.6636 26.472 12.7804 25.3823 19.0762 19.0842C25.8538 12.3098 26.445 11.6964 26.7789 11.187C27.3427 10.3381 27.6877 9.51123 27.8848 8.56379C27.9942 8.0435 28.0382 6.74549 27.9613 6.21434ZM26.5216 8.61836C26.3299 9.34666 25.8809 10.2504 25.4268 10.809C25.2352 11.0498 23.5215 12.797 21.6219 14.6973L18.1673 18.1476L14.0231 13.9964L9.8734 9.85066L13.377 6.34005C15.3481 4.3686 17.0726 2.68744 17.3188 2.50115C17.8772 2.07401 18.6983 1.67429 19.3992 1.488C19.8865 1.35657 20.0453 1.34028 20.8498 1.34029C21.6547 1.34029 21.8135 1.35657 22.2896 1.488C24.5671 2.10144 26.182 3.84831 26.631 6.19234C26.7461 6.81663 26.6966 7.93921 26.5216 8.61836Z" fill="#8F8F8F"/>
</svg>
