<svg width="28" height="28" viewBox="0 0 28 28" fill="none" xmlns="http://www.w3.org/2000/svg">
<path d="M23.7004 13.1874H22.9337V7.85559C22.9337 4.0755 19.8384 1 16.0335 1H6.83332C6.40983 1 6.06666 1.34096 6.06666 1.7617V10.1406H5.30001C4.03171 10.1406 3 11.1656 3 12.4258V24.7148C3 25.975 4.03171 27 5.30001 27H23.7C24.9683 27 26 25.975 26 24.7148V15.4728C26 14.2127 24.9687 13.1874 23.7004 13.1874ZM20.8887 5.58479C20.8049 5.57554 20.7199 5.57046 20.6337 5.57046H19.1004C18.6776 5.57046 18.3337 5.22878 18.3337 4.80876V3.28536C18.3337 3.19975 18.3286 3.11524 18.3193 3.032C19.4449 3.56068 20.3566 4.46652 20.8887 5.58479ZM7.60053 2.52359H16.0339C16.4567 2.52359 16.8006 2.86527 16.8006 3.28529V4.80869C16.8006 6.0688 17.8323 7.09385 19.1006 7.09385H20.6339C21.0567 7.09385 21.4005 7.43553 21.4005 7.85555V13.1874H13.441L12.5435 11.4037C12.1514 10.6246 11.363 10.1405 10.4863 10.1405H7.60049L7.60053 2.52359ZM24.4673 24.7149C24.4673 25.1349 24.1234 25.4766 23.7006 25.4766H5.30066C4.8779 25.4766 4.53401 25.1349 4.53401 24.7149V12.4258C4.53401 12.0058 4.87791 11.6641 5.30066 11.6641H10.4863C10.7785 11.6641 11.0414 11.8255 11.1721 12.0852L12.2816 14.29C12.4114 14.5481 12.677 14.7109 12.9672 14.7109H23.7006C24.1234 14.7109 24.4673 15.0526 24.4673 15.4726V24.7149Z" fill="#8F8F8F" stroke="#8F8F8F"/>
<path d="M16.3333 20.3333H15.6667V19.6667C15.6667 19.2984 15.3682 19 15 19C14.6318 19 14.3333 19.2984 14.3333 19.6667V20.3333H13.6667C13.2984 20.3333 13 20.6318 13 21C13 21.3682 13.2984 21.6667 13.6667 21.6667H14.3333V22.3333C14.3333 22.7016 14.6318 23 15 23C15.3682 23 15.6667 22.7016 15.6667 22.3333V21.6667H16.3333C16.7016 21.6667 17 21.3682 17 21C17 20.6318 16.7016 20.3333 16.3333 20.3333Z" fill="#8F8F8F" stroke="#8F8F8F"/>
</svg>
