<svg width="28" height="28" viewBox="0 0 28 28" fill="none" xmlns="http://www.w3.org/2000/svg">
<path d="M14.0001 0.666626C6.64808 0.666626 0.666748 6.64796 0.666748 14C0.666748 21.352 6.64808 27.3333 14.0001 27.3333C21.3521 27.3333 27.3334 21.352 27.3334 14C27.3334 6.64796 21.3521 0.666626 14.0001 0.666626ZM14.0001 24.6666C8.11875 24.6666 3.33341 19.8813 3.33341 14C3.33341 8.11863 8.11875 3.33329 14.0001 3.33329C19.8814 3.33329 24.6667 8.11863 24.6667 14C24.6667 19.8813 19.8814 24.6666 14.0001 24.6666Z" fill="#8F8F8F"/>
<path d="M17.3004 17.2993C16.874 17.7244 16.3703 18.0641 15.8164 18.3003C14.8193 18.7213 13.7068 18.7827 12.6694 18.4742C11.6319 18.1656 10.7339 17.5062 10.1289 16.6086L8.19458 17.9141C8.69909 18.6586 9.34094 19.3001 10.0857 19.8041C10.8437 20.3167 11.6953 20.6747 12.5917 20.8576C13.5213 21.0472 14.4796 21.0472 15.4092 20.8576C16.3056 20.6744 17.1572 20.3164 17.9152 19.8041C18.2804 19.5568 18.6292 19.2698 18.9489 18.9513C19.2662 18.6351 19.5556 18.2851 19.8052 17.9141L17.8709 16.6086C17.7032 16.8566 17.5122 17.0878 17.3004 17.2993V17.2993Z" fill="#8F8F8F"/>
<path d="M9.91675 14C10.8832 14 11.6667 13.2165 11.6667 12.25C11.6667 11.2835 10.8832 10.5 9.91675 10.5C8.95025 10.5 8.16675 11.2835 8.16675 12.25C8.16675 13.2165 8.95025 14 9.91675 14Z" fill="#8F8F8F"/>
<path d="M18.0751 13.9837C19.0371 13.9837 19.8169 13.2038 19.8169 12.2418C19.8169 11.2798 19.0371 10.5 18.0751 10.5C17.1131 10.5 16.3333 11.2798 16.3333 12.2418C16.3333 13.2038 17.1131 13.9837 18.0751 13.9837Z" fill="#8F8F8F"/>
</svg>
