<svg width="28" height="28" viewBox="0 0 28 28" fill="none" xmlns="http://www.w3.org/2000/svg">
<path d="M19.8333 2.33337V4.66671H23.3415C23.9808 4.66671 24.5 5.18587 24.5 5.82521V24.5082C24.4997 24.8154 24.3775 25.1099 24.1603 25.3271C23.9431 25.5442 23.6487 25.6664 23.3415 25.6667H4.6585C4.35125 25.6667 4.05658 25.5447 3.83932 25.3274C3.62206 25.1101 3.5 24.8155 3.5 24.5082V5.82521C3.5 5.18587 4.01917 4.66671 4.6585 4.66671H8.16667V2.33337H19.8333ZM8.16667 7.00004H5.83333V23.3334H22.1667V7.00004H19.8333V9.33337H8.16667V7.00004ZM10.5 18.6667V21H8.16667V18.6667H10.5ZM10.5 15.1667V17.5H8.16667V15.1667H10.5ZM10.5 11.6667V14H8.16667V11.6667H10.5ZM17.5 4.66671H10.5V7.00004H17.5V4.66671Z" fill="#8F8F8F"/>
</svg>
