<svg width="32" height="32" viewBox="0 0 32 32" fill="none" xmlns="http://www.w3.org/2000/svg">
<path d="M11.0366 13.4454C10.9011 13.3547 10.7371 13.3169 10.5756 13.3391C10.4141 13.3612 10.2663 13.4417 10.1601 13.5654C10.054 13.6892 9.99682 13.8475 9.99949 14.0105C10.0022 14.1735 10.0645 14.3298 10.1746 14.45C10.4026 14.6994 10.7073 14.9347 10.9346 15.1107L11.0926 15.234C11.1453 15.276 11.1893 15.3134 11.2259 15.3454C11.1946 15.374 11.1559 15.4054 11.1113 15.4414C11.0579 15.484 10.9913 15.5347 10.9173 15.5914C10.6973 15.7594 10.4086 15.9787 10.1919 16.198C10.0753 16.3154 10.0064 16.4719 9.99876 16.6372C9.99111 16.8026 10.0452 16.9648 10.1506 17.0924C10.2559 17.2201 10.405 17.304 10.5687 17.3278C10.7325 17.3516 10.8993 17.3137 11.0366 17.2214L13.0366 15.888C13.1279 15.8271 13.2028 15.7447 13.2546 15.6479C13.3063 15.5511 13.3334 15.4431 13.3334 15.3334C13.3334 15.2236 13.3063 15.1156 13.2546 15.0188C13.2028 14.9221 13.1279 14.8396 13.0366 14.7787L11.0366 13.4454V13.4454ZM21.8393 13.566C21.7332 13.4423 21.5856 13.3618 21.4242 13.3395C21.2628 13.3173 21.0988 13.355 20.9633 13.4454L18.9633 14.7787C18.872 14.8396 18.7971 14.9221 18.7453 15.0188C18.6936 15.1156 18.6665 15.2236 18.6665 15.3334C18.6665 15.4431 18.6936 15.5511 18.7453 15.6479C18.7971 15.7447 18.872 15.8271 18.9633 15.888L20.9633 17.2214C21.1006 17.3129 21.267 17.3503 21.4303 17.3263C21.5936 17.3023 21.7421 17.2185 21.8472 17.0913C21.9523 16.964 22.0065 16.8023 21.9992 16.6374C21.992 16.4725 21.9238 16.3162 21.808 16.1987C21.5913 15.9787 21.3033 15.7594 21.0826 15.592C21.0174 15.5425 20.9527 15.4923 20.8886 15.4414C20.8495 15.4102 20.811 15.3782 20.7733 15.3454C20.8106 15.3134 20.8546 15.276 20.9073 15.234L21.0646 15.1114C21.2926 14.9347 21.5979 14.6994 21.8253 14.45C21.9351 14.3297 21.9971 14.1734 21.9996 14.0105C22.002 13.8477 21.9448 13.6896 21.8386 13.566H21.8393Z" fill="#8F8F8F" stroke="#8F8F8F"/>
<path fill-rule="evenodd" clip-rule="evenodd" d="M23.7733 25.142C25.0996 24.0166 26.1648 22.6158 26.8947 21.037C27.6246 19.4582 28.0018 17.7394 28 16C28 9.37267 22.6273 4 16 4C9.37267 4 4.00001 9.37267 4.00001 16C3.99821 17.7394 4.3754 19.4582 5.10533 21.037C5.83526 22.6158 6.90041 24.0166 8.22667 25.142C8.10828 25.2043 7.99484 25.2757 7.88734 25.3553C7.63601 25.5453 7.33334 25.8673 7.33334 26.3333C7.33334 26.6807 7.50534 26.9513 7.68667 27.1367C7.86667 27.3187 8.09667 27.4633 8.33401 27.58C8.81201 27.8153 9.46067 28.0087 10.2073 28.1647C11.7113 28.478 13.7593 28.6667 16 28.6667C18.2407 28.6667 20.2887 28.478 21.7933 28.1647C22.54 28.0087 23.188 27.8153 23.666 27.58C23.9033 27.4633 24.134 27.3187 24.3127 27.1367C24.4947 26.9513 24.6667 26.6807 24.6667 26.3333C24.6667 25.8673 24.364 25.5453 24.1127 25.3553C24.0054 25.2757 23.8922 25.2044 23.774 25.142H23.7733ZM22.2907 24.6153C23.6476 23.626 24.7514 22.3298 25.5119 20.8325C26.2725 19.3352 26.6681 17.6793 26.6667 16C26.6667 10.1087 21.8913 5.33333 16 5.33333C10.1087 5.33333 5.33334 10.1087 5.33334 16C5.33334 19.5273 7.04534 22.6547 9.68401 24.5967L9.66401 24.6267C10.2147 24.4915 10.7718 24.3842 11.3333 24.3053V23.4433C10.9827 23.0087 10.7567 22.52 10.6887 22L10.6873 21.99C10.6736 21.8828 10.6667 21.7748 10.6667 21.6667C10.6667 20.6593 11.258 19.7467 12.2147 19.084L12.2287 19.074C13.194 18.4107 14.5273 18 16 18C17.4733 18 18.8067 18.4107 19.7713 19.0733C20.234 19.392 20.612 19.7687 20.88 20.1853L20.914 20.2393C21.2168 20.7186 21.3614 21.2808 21.3273 21.8467V21.8507C21.3235 21.9006 21.3181 21.9504 21.3113 22L21.31 22.0113C21.24 22.5273 21.0147 23.0113 20.6667 23.4433V24.3053C21.262 24.392 21.8087 24.496 22.2907 24.6153V24.6153ZM19.9933 21.542C19.9487 21.12 19.672 20.624 19.016 20.1727C18.3 19.6807 17.238 19.3333 16 19.3333C14.762 19.3333 13.7 19.68 12.984 20.1727C12.328 20.624 12.0513 21.12 12.0067 21.5427C12.308 21.34 12.684 21.1947 13.0713 21.0867C13.8993 20.8567 14.964 20.75 16 20.75C17.036 20.75 18.1007 20.8567 18.9287 21.0867C19.3153 21.1947 19.692 21.34 19.9933 21.5427V21.542ZM12.6507 22.734L12.654 22.7287C12.6532 22.7306 12.652 22.7324 12.6507 22.734ZM12.7307 22.662C12.708 22.678 12.6866 22.6959 12.6667 22.7153V25.4807L12.08 25.5513C10.9067 25.6927 9.96134 25.892 9.32534 26.1167C9.15341 26.175 8.98661 26.2474 8.82667 26.3333C8.85846 26.351 8.89069 26.3679 8.92334 26.384C9.25534 26.5473 9.77801 26.7133 10.4793 26.8593C11.87 27.1487 13.822 27.3333 16 27.3333C18.178 27.3333 20.13 27.1493 21.5207 26.8593C22.222 26.7127 22.7453 26.5473 23.0767 26.384C23.1093 26.3679 23.1416 26.351 23.1733 26.3333C23.0134 26.2474 22.8466 26.175 22.6747 26.1167C22.0387 25.892 21.0933 25.6927 19.92 25.5513L19.3333 25.4807V22.7153C19.3133 22.6958 19.2916 22.678 19.2687 22.662C19.1407 22.5707 18.912 22.466 18.5713 22.3713C18.383 22.32 18.1923 22.2775 18 22.244V25.3333C18 25.5101 17.9298 25.6797 17.8047 25.8047C17.6797 25.9298 17.5102 26 17.3333 26C17.1565 26 16.987 25.9298 16.8619 25.8047C16.7369 25.6797 16.6667 25.5101 16.6667 25.3333V22.1C16.2225 22.0781 15.7775 22.0781 15.3333 22.1V25.3333C15.3333 25.5101 15.2631 25.6797 15.1381 25.8047C15.0131 25.9298 14.8435 26 14.6667 26C14.4899 26 14.3203 25.9298 14.1953 25.8047C14.0702 25.6797 14 25.5101 14 25.3333V22.244C13.8077 22.2775 13.617 22.32 13.4287 22.3713C13.088 22.466 12.8593 22.5707 12.7313 22.662H12.7307ZM8.62801 26.4753L8.63201 26.47L8.62801 26.4753ZM8.63201 26.47C8.63098 26.4716 8.62986 26.4732 8.62867 26.4747L8.63201 26.47ZM8.62867 26.4747C8.62854 26.4752 8.62831 26.4756 8.62801 26.476L8.62867 26.4747ZM23.368 26.47L23.37 26.474C23.3706 26.4748 23.3712 26.4754 23.372 26.476L23.3707 26.474L23.368 26.47ZM19.346 22.7287L19.3493 22.734C19.348 22.7324 19.3469 22.7306 19.346 22.7287V22.7287Z" fill="#8F8F8F" stroke="#8F8F8F"/>
</svg>
