<svg width="111" height="30" viewBox="0 0 111 30" fill="none" xmlns="http://www.w3.org/2000/svg">
<path d="M27.337 1.81809H33.899V3.9951H29.9524V5.05167H33.3403V7.07394H29.9524V10.3071H27.337V1.81809Z" fill="#1B225B"/>
<path d="M36.0514 1.81809H38.608L41.6986 10.3071H38.9884L38.6315 9.09385H35.9327L35.5523 10.3071H32.9247L36.0514 1.81809ZM38.1085 7.27608L37.3469 4.65952H37.3238L36.5031 7.27608H38.1085Z" fill="#1B225B"/>
<path d="M42.1146 1.81833H44.7308V4.74439H44.7539L47.0841 1.81833H50.3055L47.2267 5.13693L50.8054 10.3074H47.5479L45.4556 7.0017L44.7308 7.79854V10.3074H42.1146V1.81833Z" fill="#1B225B"/>
<path d="M58.7591 7.02526C58.7591 9.38013 57.4874 10.5088 54.8959 10.5088C52.3041 10.5088 51.0203 9.38013 51.0203 7.02526V1.81799H53.6357V6.44272C53.6357 7.31125 53.6357 8.39329 54.9077 8.39329C56.1437 8.39329 56.1437 7.31125 56.1437 6.44272V1.81799H58.7591V7.02526Z" fill="#1B225B"/>
<path d="M59.8425 1.81809H62.4571V8.1313H66.2141V10.3071H59.8425V1.81809Z" fill="#1B225B"/>
<path d="M67.0705 3.99534H64.6941V1.81833H72.0631V3.99534H69.6859V10.3074H67.0705V3.99534Z" fill="#1B225B"/>
<path d="M72.801 1.81809H75.476L77.9491 6.36015H77.9726V1.81809H80.445V10.3071H77.9017L75.2969 5.66987H75.2734V10.3071H72.801V1.81809Z" fill="#1B225B"/>
<path d="M81.5757 1.81833H84.191V10.3074H81.5757V1.81833ZM83.4068 1.33216H81.7187L82.8947 0.000174522H85.4506L83.4068 1.33216Z" fill="#1B225B"/>
<path d="M36.6462 11.3665H39.3212L41.7944 15.9078H41.8179V11.3665H44.2906V19.8547H41.7466L39.1429 15.2183H39.1194V19.8547H36.6462V11.3665Z" fill="#1B225B"/>
<path d="M45.4207 11.3665H52.4469V13.5415H48.0353V14.6001H52.0426V16.6208H48.0353V17.6793H52.5774V19.8547H45.4207V11.3665Z" fill="#1B225B"/>
<path d="M53.5402 11.3665H57.2615L58.4748 16.3595H58.4975L59.7104 11.3665H63.4314V19.8547H60.9578V14.4101H60.9347L59.4601 19.8547H57.5107L56.0369 14.4101H56.0134V19.8547H53.5402V11.3665Z" fill="#1B225B"/>
<path d="M68.5921 11.1642C71.1723 11.1642 72.8952 13.0188 72.8952 15.6103C72.8952 18.2022 71.1723 20.0564 68.5921 20.0564C66.0128 20.0564 64.2883 18.2022 64.2883 15.6103C64.2883 13.0188 66.0128 11.1642 68.5921 11.1642ZM68.5921 17.9405C69.2577 17.9405 70.281 17.5009 70.281 15.6103C70.281 13.7197 69.2577 13.2805 68.5921 13.2805C67.9265 13.2805 66.9044 13.7197 66.9044 15.6103C66.9044 17.5009 67.9265 17.9405 68.5921 17.9405Z" fill="#1B225B"/>
<path d="M79.1135 14.5288C79.0653 14.2201 78.8279 13.2806 77.7462 13.2806C76.522 13.2806 76.1294 14.4692 76.1294 15.6108C76.1294 16.752 76.522 17.941 77.7462 17.941C78.6269 17.941 78.9713 17.3228 79.1248 16.5263H81.6936C81.6936 18.2379 80.3032 20.0569 77.8171 20.0569C75.0713 20.0569 73.514 18.1192 73.514 15.6108C73.514 12.9359 75.2021 11.1647 77.8171 11.1647C80.1481 11.1765 81.4319 12.4007 81.6568 14.5288H79.1135Z" fill="#1B225B"/>
<path d="M82.5619 11.3665H85.236L87.7084 15.9078H87.7327V11.3665H90.2059V19.8547H87.6618L85.0578 15.2183H85.0343V19.8547H82.5619V11.3665Z" fill="#1B225B"/>
<path d="M91.3364 19.8547H93.9517V11.3665H91.3364V19.8547Z" fill="#1B225B"/>
<path d="M100.407 14.5288C100.36 14.2201 100.122 13.2806 99.0399 13.2806C97.8148 13.2806 97.4231 14.4692 97.4231 15.6108C97.4231 16.752 97.8148 17.941 99.0399 17.941C99.919 17.941 100.265 17.3228 100.419 16.5263H102.986C102.986 18.2379 101.595 20.0569 99.1108 20.0569C96.3657 20.0569 94.8077 18.1192 94.8077 15.6108C94.8077 12.9359 96.4966 11.1647 99.1108 11.1647C101.441 11.1765 102.726 12.4007 102.95 14.5288H100.407Z" fill="#1B225B"/>
<path d="M103.843 11.3665H111V13.5415H106.459V14.6001H110.466V16.6208H106.459V17.6793H111V19.8547H103.843V11.3665Z" fill="#1B225B"/>
<path d="M27.337 20.914H31.9852C34.2202 20.914 34.6958 22.1739 34.6958 23.0416C34.6958 23.898 34.2797 24.3615 33.6498 24.7062C34.4106 24.9675 35.1236 25.574 35.1236 26.8225C35.1236 28.5224 33.6498 29.4019 32.1517 29.4019H27.337V20.914ZM29.9524 24.2189H31.3317C31.8783 24.2189 32.223 24.0641 32.223 23.5172C32.223 23.089 31.8665 22.9351 31.3317 22.9351H29.9524V24.2189ZM29.9524 27.3812H31.4857C32.0326 27.3812 32.5078 27.2268 32.5078 26.5726C32.5078 26.0731 32.2112 25.7996 31.5934 25.7996H29.9524V27.3812Z" fill="#1B225B"/>
<path d="M35.9091 20.914H40.8903C42.3763 20.914 43.6605 21.7339 43.6605 23.339C43.6605 24.2189 43.2558 25.1458 42.3884 25.467C43.1014 25.7405 43.5414 26.5248 43.6362 27.5833C43.6718 27.999 43.684 29.0097 43.9222 29.4019H41.3064C41.1755 28.9741 41.1277 28.5341 41.0921 28.0942C41.0212 27.2856 40.9495 26.4417 39.9156 26.4417H38.5245V29.4019H35.9091V20.914ZM38.5245 24.6228H39.8917C40.3791 24.6228 41.0447 24.5397 41.0447 23.7789C41.0447 23.2438 40.7477 22.9351 39.7488 22.9351H38.5245V24.6228Z" fill="#1B225B"/>
<path d="M44.4933 20.914H47.1683L49.6407 25.4553H49.6646V20.914H52.1374V29.4019H49.5933L46.9896 24.7658H46.9657V29.4019H44.4933V20.914Z" fill="#1B225B"/>
<path d="M57.321 20.7116C59.9015 20.7116 61.6253 22.5666 61.6253 25.1581C61.6253 27.7496 59.9015 29.6038 57.321 29.6038C54.7417 29.6038 53.0175 27.7496 53.0175 25.1581C53.0175 22.5666 54.7417 20.7116 57.321 20.7116ZM57.321 27.4879C57.987 27.4879 59.0099 27.0483 59.0099 25.1581C59.0099 23.2674 57.987 22.8279 57.321 22.8279C56.6558 22.8279 55.6333 23.2674 55.6333 25.1581C55.6333 27.0483 56.6558 27.4879 57.321 27.4879Z" fill="#1B225B"/>
<path d="M18.3731 11.0724V1.88565H0V29.4475H18.3731V20.26H9.1848V11.0724H18.3731Z" fill="#1B225B"/>
</svg>
